<?xml version="1.0" encoding="utf-8"?>
<!-- Generator: Adobe Illustrator 16.0.0, SVG Export Plug-In . SVG Version: 6.00 Build 0)  -->
<!DOCTYPE svg PUBLIC "-//W3C//DTD SVG 1.1//EN" "http://www.w3.org/Graphics/SVG/1.1/DTD/svg11.dtd">
<svg version="1.1" id="Слой_1" xmlns="http://www.w3.org/2000/svg" xmlns:xlink="http://www.w3.org/1999/xlink" x="0px" y="0px"
	 width="60px" height="60px" viewBox="0 0 60 60" enable-background="new 0 0 60 60" xml:space="preserve">
<rect x="22.495" y="1.445" fill="none" stroke="#64B357" stroke-miterlimit="10" width="19.901" height="6.767"/>
<polyline fill="none" stroke="#64B357" stroke-linejoin="round" stroke-miterlimit="10" points="38.223,14.265 46.568,14.265 
	46.568,34.187 "/>
<polygon fill="none" stroke="#64B357" stroke-linejoin="round" stroke-miterlimit="10" points="46.568,14.265 38.225,14.265 
	42.396,8.212 "/>
<polygon fill="none" stroke="#64B357" stroke-linejoin="round" stroke-miterlimit="10" points="38.223,14.265 18.323,14.265 
	22.496,8.212 42.396,8.212 "/>
<polyline fill="none" stroke="#64B357" stroke-linejoin="round" stroke-miterlimit="10" points="18.323,44.655 18.323,14.265 
	38.223,14.265 38.223,33.317 "/>
<line fill="none" stroke="#64B357" stroke-miterlimit="10" x1="21.625" y1="18.103" x2="21.625" y2="26.976"/>
<line fill="none" stroke="#64B357" stroke-miterlimit="10" x1="21.625" y1="30.759" x2="21.625" y2="33.903"/>
<path fill="none" stroke="#000000" stroke-miterlimit="10" d="M34.656,46.999c-0.867-5.381-0.088-11.68,3.641-13.684
	c5.273-2.833,14.451,3.99,17.285,9.264c2.836,5.273,0.857,11.848-4.416,14.682c-4.182,2.248-9.18,1.469-12.484-1.578"/>
<path fill="none" stroke="#000000" stroke-miterlimit="10" d="M26.461,58.554c-2.366,0-4.686-0.326-6.896-0.969
	C13.027,55.901,8.122,52.167,6.07,47.327c-1.083-2.557-1.16-5.125-0.204-6.869L5.91,40.38l0.03-0.086
	c0.916-2.605-0.594-5.627-1.807-8.057c-0.394-0.788-0.761-1.524-1.009-2.167c0.211-0.352,0.618-1.013,1.062-1.732
	c0.659-1.07,1.276-2.074,1.595-2.609c0.568,2.25,1.597,4.393,2.593,6.466c0.668,1.391,1.299,2.705,1.713,3.91
	c1.105,3.223,9.12,10.799,15.44,11.637c1.279,0.17,2.404,0.252,3.439,0.252c4.816,0,7.884-1.73,14.607-5.521l0.154-0.088
	c1.357-0.766,2.883-1.625,4.592-2.564c0.396,0.299,0.771,0.641,1.135,0.973c0.363,0.334,0.74,0.68,1.143,0.98
	c-2.088,9.414-12.676,16.781-24.128,16.781H26.461z"/>
<path fill="none" stroke="#000000" stroke-miterlimit="10" d="M36.105,50.669c0.732-0.344,1.465-0.729,2.195-1.156"/>
<path fill="none" stroke="#000000" stroke-miterlimit="10" d="M22.438,52.624c2.991,0.523,6.198,0.43,9.46-0.426"/>
<path fill="none" stroke="#000000" stroke-miterlimit="10" d="M5.925,36.53c0.97,6.4,5.382,11.791,11.386,14.514"/>
</svg>
