<?xml version="1.0" encoding="utf-8"?>
<!-- Generator: Adobe Illustrator 20.1.0, SVG Export Plug-In . SVG Version: 6.00 Build 0)  -->
<svg version="1.1" id="Слой_1" xmlns="http://www.w3.org/2000/svg" xmlns:xlink="http://www.w3.org/1999/xlink" x="0px" y="0px"
	 viewBox="0 0 60 60" style="enable-background:new 0 0 60 60;" xml:space="preserve">
<style type="text/css">
	.st0{fill:#FFFFFF;}
	.st1{fill:#84C37A;}
</style>
<title>0023BA70-8AC3-42EC-964A-0F45E6A930B7</title>
<desc>Created with sketchtool.</desc>
<g>
	<g>
		<polygon id="path-1" class="st0" points="15,44.9 44.8,44.9 44.8,15.5 15,15.5 15,44.9 44.8,44.9 44.8,15.5 15,15.5 		"/>
	</g>
	<circle id="Oval" class="st1" cx="30" cy="30" r="30"/>
	<g id="Icon" transform="translate(15.000000, 15.000000)">
		<g id="Group-3" transform="translate(0.000000, 0.392847)">
			<g id="Clip-2">
			</g>
			<path id="Fill-1" class="st0" d="M4.5,1.1C4.2,1.1,4,1.3,3.7,1.5C3.1,2.1,1.9,3.5,1.5,4.3C1.3,4.6,1.2,4.9,1.3,5.2l0,0.1l0,0.1
				C1.1,6.2-0.5,13.6,8,21.8c6,5.8,11.1,6.6,13.7,6.6c1.6,0,2.6-0.3,2.9-0.5l0.1-0.1l0.2,0c0.3,0,0.6,0,0.9-0.2
				c0.8-0.5,2.1-1.6,2.7-2.3c0.3-0.3,0.4-0.6,0.4-0.8c0-0.2-0.2-0.5-0.6-0.7l-6.6-4.5c-0.4-0.3-1-0.2-1.3,0.2L18.6,22
				c-0.1,0.1-0.1,0.2-0.1,0.3l0,0.2l-0.2,0.1c-0.2,0.1-0.6,0.3-1.3,0.3c-1.2,0-3.1-0.6-5.8-3.2c-3.6-3.6-5-6.1-4.2-8L7,11.4l0.3-0.1
				c0.1,0,0.2-0.1,0.2-0.1l2.4-1.8c0.4-0.3,0.5-0.9,0.1-1.3L5.3,1.7C4.8,1.1,4.5,1.1,4.5,1.1 M21.7,29.5L21.7,29.5
				c-2.7,0-8.2-0.9-14.4-6.9c-3.7-3.6-6-7.5-6.9-11.5c-0.6-3-0.2-5.1-0.1-5.8c0-0.5,0.1-1,0.3-1.5c0.5-0.9,1.7-2.4,2.4-3
				c1.1-1,2.2-0.8,3.1,0.4l4.7,6.4c0.6,0.9,0.5,2.1-0.4,2.7l-2.4,1.8c-0.1,0.1-0.2,0.1-0.3,0.2c-0.3,1.4,1,3.6,4.1,6.7
				c2.4,2.4,4.1,2.9,5.1,2.9c0.3,0,0.5,0,0.6-0.1c0-0.1,0.1-0.3,0.2-0.4l1.7-2.4c0.4-0.5,0.9-0.8,1.6-0.8c0.4,0,0.8,0.1,1.1,0.3
				l6.6,4.5c0.6,0.4,1,0.9,1,1.4c0.1,0.5-0.1,1.1-0.6,1.6c-0.6,0.7-2,2-2.9,2.5c-0.5,0.3-0.9,0.4-1.4,0.4
				C24.4,29.2,23.3,29.5,21.7,29.5"/>
		</g>
		<path id="Fill-4" class="st0" d="M23.2,16.3c-0.2,0-0.4-0.1-0.5-0.4c-1.3-4.1-4.5-7.3-8.6-8.5c-0.3-0.1-0.4-0.4-0.3-0.6
			c0.1-0.3,0.4-0.4,0.6-0.3c4.4,1.3,7.9,4.8,9.2,9.2c0.1,0.3-0.1,0.6-0.3,0.6C23.3,16.3,23.3,16.3,23.2,16.3"/>
		<path id="Fill-6" class="st0" d="M27.3,16.5c-0.2,0-0.5-0.2-0.5-0.4C25.7,9.9,21,5,14.9,3.5c-0.3-0.1-0.4-0.3-0.4-0.6
			c0.1-0.3,0.3-0.4,0.6-0.4c6.5,1.5,11.5,6.8,12.7,13.4C27.9,16.2,27.7,16.5,27.3,16.5C27.4,16.5,27.4,16.5,27.3,16.5"/>
	</g>
</g>
</svg>
