<?xml version="1.0" encoding="UTF-8" standalone="no"?>
<svg
   xmlns:dc="http://purl.org/dc/elements/1.1/"
   xmlns:cc="http://creativecommons.org/ns#"
   xmlns:rdf="http://www.w3.org/1999/02/22-rdf-syntax-ns#"
   xmlns:svg="http://www.w3.org/2000/svg"
   xmlns="http://www.w3.org/2000/svg"
   viewBox="0 0 655.51251 832.67499"
   height="832.67499"
   width="655.51251"
   xml:space="preserve"
   version="1.1"
   id="svg4155"><metadata
     id="metadata4161"><rdf:RDF><cc:Work
         rdf:about=""><dc:format>image/svg+xml</dc:format><dc:type
           rdf:resource="http://purl.org/dc/dcmitype/StillImage" /><dc:title></dc:title></cc:Work></rdf:RDF></metadata><defs
     id="defs4159"><clipPath
       id="clipPath4173"
       clipPathUnits="userSpaceOnUse"><path
         id="path4175"
         d="m 0,666.14 524.41,0 L 524.41,0 0,0 0,666.14 Z" /></clipPath></defs><g
     transform="matrix(1.25,0,0,-1.25,0,832.675)"
     id="g4163"><g
       transform="translate(177.26,333.1833)"
       id="g4165"><path
         id="path4167"
         style="fill:none;stroke:#000000;stroke-width:1;stroke-linecap:round;stroke-linejoin:miter;stroke-miterlimit:10;stroke-dasharray:none;stroke-opacity:1"
         d="M 0,0 7.697,15.436 27.56,21.573 28.445,18.707 9.808,12.948 1.96,-2.793" /></g><g
       id="g4169"><g
         clip-path="url(#clipPath4173)"
         id="g4171"><g
           transform="translate(142.3096,319.9901)"
           id="g4177"><path
             id="path4179"
             style="fill:none;stroke:#64b357;stroke-width:1;stroke-linecap:butt;stroke-linejoin:miter;stroke-miterlimit:10;stroke-dasharray:none;stroke-opacity:1"
             d="m 0,0 c -5.494,1.616 -9.505,6.696 -9.505,12.713 0,7.318 5.932,13.25 13.25,13.25 6.956,0 12.66,-5.36 13.207,-12.175" /></g><g
           transform="translate(157.2392,333.46)"
           id="g4181"><path
             id="path4183"
             style="fill:none;stroke:#64b357;stroke-width:1;stroke-linecap:butt;stroke-linejoin:miter;stroke-miterlimit:10;stroke-dasharray:none;stroke-opacity:1"
             d="M 0,0 C -0.169,2.528 -1.171,4.824 -2.74,6.619 L -9.358,0 0,0 Z m -11.941,-9.437 0,6.854 -6.619,-6.619 c 1.304,-1.14 2.873,-1.98 4.603,-2.419 m 6.839,10.108 -2.24,0 1.071,-1.071 m -0.873,-1.267 -1.268,1.268 0,-5.875 m -11.941,6.945 c 0.169,-2.529 1.171,-4.824 2.739,-6.619 l 6.619,6.619 -9.358,0 z m 11.941,11.941 0,-9.358 6.619,6.619 c -1.795,1.568 -4.091,2.57 -6.619,2.739 z m -1.513,-9.358 0,9.358 C -14.469,10.259 -16.765,9.257 -18.56,7.689 L -11.941,1.07 Z M -19.63,6.619 C -21.199,4.824 -22.2,2.528 -22.369,0 l 9.358,0 -6.619,6.619 z" /></g><g
           transform="translate(344.2412,344.1036)"
           id="g4185"><path
             id="path4187"
             style="fill:none;stroke:#000000;stroke-width:1;stroke-linecap:butt;stroke-linejoin:miter;stroke-miterlimit:10;stroke-dasharray:none;stroke-opacity:1"
             d="m 0,0 0,4.726 6.069,0 0,-4.736" /></g><g
           transform="translate(347.2264,344.259)"
           id="g4189"><path
             id="path4191"
             style="fill:none;stroke:#000000;stroke-width:1;stroke-linecap:butt;stroke-linejoin:miter;stroke-miterlimit:10;stroke-dasharray:none;stroke-opacity:1"
             d="m 0,0 c -15.663,0 -28.36,-12.697 -28.36,-28.36 l 56.72,0 C 28.36,-12.697 15.663,0 0,0 Z" /></g><g
           transform="translate(323.7713,324.7204)"
           id="g4193"><path
             id="path4195"
             style="fill:none;stroke:#000000;stroke-width:1;stroke-linecap:butt;stroke-linejoin:miter;stroke-miterlimit:10;stroke-dasharray:none;stroke-opacity:1"
             d="M 0,0 C 2.317,6.141 6.98,11.14 12.89,13.9" /></g><g
           transform="translate(322.3851,319.2009)"
           id="g4197"><path
             id="path4199"
             style="fill:none;stroke:#000000;stroke-width:1;stroke-linecap:butt;stroke-linejoin:miter;stroke-miterlimit:10;stroke-dasharray:none;stroke-opacity:1"
             d="M 0,0 C 0.094,0.71 0.218,1.411 0.37,2.102" /></g><path
           id="path4201"
           style="fill:none;stroke:#000000;stroke-width:1;stroke-linecap:butt;stroke-linejoin:miter;stroke-miterlimit:10;stroke-dasharray:none;stroke-opacity:1"
           d="m 380.538,311.033 -66.624,0 0,4.866 66.624,0 0,-4.866 z" /><g
           transform="translate(341.3733,329.9926)"
           id="g4203"><path
             id="path4205"
             style="fill:none;stroke:#64b357;stroke-width:1;stroke-linecap:butt;stroke-linejoin:miter;stroke-miterlimit:10;stroke-dasharray:none;stroke-opacity:1"
             d="m 0,0 c 0,-1.207 -0.978,-2.185 -2.185,-2.185 -1.207,0 -2.186,0.978 -2.186,2.185 0,1.207 0.979,2.185 2.186,2.185 C -0.978,2.185 0,1.207 0,0 Z" /></g><g
           transform="translate(343.4355,322.0338)"
           id="g4207"><path
             id="path4209"
             style="fill:none;stroke:#64b357;stroke-width:1;stroke-linecap:butt;stroke-linejoin:miter;stroke-miterlimit:10;stroke-dasharray:none;stroke-opacity:1"
             d="m 0,0 0,0.844 c 0,2.121 -1.719,3.839 -3.839,3.839 l -0.817,0 c -2.12,0 -3.839,-1.718 -3.839,-3.839 L -8.495,0 0,0 Z" /></g><g
           transform="translate(347.2755,330.3215)"
           id="g4211"><path
             id="path4213"
             style="fill:none;stroke:#64b357;stroke-width:1;stroke-linecap:butt;stroke-linejoin:miter;stroke-miterlimit:10;stroke-dasharray:none;stroke-opacity:1"
             d="M 0,0 12.237,0" /></g><g
           transform="translate(347.2755,327.1059)"
           id="g4215"><path
             id="path4217"
             style="fill:none;stroke:#64b357;stroke-width:1;stroke-linecap:butt;stroke-linejoin:miter;stroke-miterlimit:10;stroke-dasharray:none;stroke-opacity:1"
             d="M 0,0 9.064,0" /></g><g
           transform="translate(347.2755,323.8903)"
           id="g4219"><path
             id="path4221"
             style="fill:none;stroke:#64b357;stroke-width:1;stroke-linecap:butt;stroke-linejoin:miter;stroke-miterlimit:10;stroke-dasharray:none;stroke-opacity:1"
             d="M 0,0 11.142,0" /></g><g
           transform="translate(164.6419,212.3793)"
           id="g4223"><path
             id="path4225"
             style="fill:none;stroke:#64b357;stroke-width:1;stroke-linecap:butt;stroke-linejoin:miter;stroke-miterlimit:10;stroke-dasharray:none;stroke-opacity:1"
             d="M 0,0 C 0.663,6.73 -1.814,9.977 -3.831,12.091" /></g><g
           transform="translate(169.5342,223.6529)"
           id="g4227"><path
             id="path4229"
             style="fill:none;stroke:#64b357;stroke-width:1;stroke-linecap:butt;stroke-linejoin:miter;stroke-miterlimit:10;stroke-dasharray:none;stroke-opacity:1"
             d="m 0,0 c -2.898,-1.213 -4.358,-3.49 -5.038,-6.328 2.499,-1.508 5.145,-2.066 8.043,-0.853 2.898,1.213 5.374,3.915 6.053,6.753 C 6.56,1.08 2.898,1.213 0,0 Z" /></g><g
           transform="translate(168.0599,199.2835)"
           id="g4231"><path
             id="path4233"
             style="fill:none;stroke:#000000;stroke-width:1;stroke-linecap:round;stroke-linejoin:miter;stroke-miterlimit:10;stroke-dasharray:none;stroke-opacity:1"
             d="m 0,0 c -0.514,-1.337 -1.81,-2.286 -3.328,-2.286 -1.562,0 -2.89,1.005 -3.371,2.404" /></g><g
           transform="translate(158.7088,202.1349)"
           id="g4235"><path
             id="path4237"
             style="fill:none;stroke:#000000;stroke-width:1;stroke-linecap:round;stroke-linejoin:miter;stroke-miterlimit:10;stroke-dasharray:none;stroke-opacity:1"
             d="M 0,0 0,-0.585" /></g><g
           transform="translate(170.4384,202.1349)"
           id="g4239"><path
             id="path4241"
             style="fill:none;stroke:#000000;stroke-width:1;stroke-linecap:round;stroke-linejoin:miter;stroke-miterlimit:10;stroke-dasharray:none;stroke-opacity:1"
             d="M 0,0 0,-0.585" /></g><g
           transform="translate(182.7607,202.3116)"
           id="g4243"><path
             id="path4245"
             style="fill:none;stroke:#000000;stroke-width:1;stroke-linecap:round;stroke-linejoin:miter;stroke-miterlimit:10;stroke-dasharray:none;stroke-opacity:1"
             d="M 0,0 C 0,0 8.188,-0.233 8.188,5.819" /></g><g
           transform="translate(147.6244,197.356)"
           id="g4247"><path
             id="path4249"
             style="fill:none;stroke:#000000;stroke-width:1;stroke-linecap:round;stroke-linejoin:miter;stroke-miterlimit:10;stroke-dasharray:none;stroke-opacity:1"
             d="M 0,0 C 0,0 -4.653,-6.879 -2.904,-10.547" /></g><g
           transform="translate(192.0502,207.9506)"
           id="g4251"><path
             id="path4253"
             style="fill:none;stroke:#000000;stroke-width:1;stroke-linecap:round;stroke-linejoin:miter;stroke-miterlimit:10;stroke-dasharray:none;stroke-opacity:1"
             d="m 0,0 -2.203,0 c -0.365,0 -0.682,0.253 -0.763,0.609 l -0.546,2.405 c -0.112,0.489 0.26,0.955 0.762,0.955 l 3.297,0 c 0.502,0 0.874,-0.466 0.762,-0.955 L 0.763,0.609 C 0.682,0.253 0.365,0 0,0 Z" /></g><g
           transform="translate(143.8792,185.7813)"
           id="g4255"><path
             id="path4257"
             style="fill:none;stroke:#000000;stroke-width:1;stroke-linecap:round;stroke-linejoin:miter;stroke-miterlimit:10;stroke-dasharray:none;stroke-opacity:1"
             d="m 0,0 1.987,0.951 c 0.33,0.157 0.724,0.066 0.951,-0.22 L 4.469,-1.203 C 4.781,-1.596 4.646,-2.177 4.193,-2.394 L 1.22,-3.816 c -0.453,-0.217 -0.99,0.043 -1.1,0.532 l -0.545,2.406 C -0.506,-0.522 -0.329,-0.158 0,0 Z" /></g><g
           transform="translate(168.4421,183.2433)"
           id="g4259"><path
             id="path4261"
             style="fill:none;stroke:#000000;stroke-width:1;stroke-linecap:round;stroke-linejoin:miter;stroke-miterlimit:10;stroke-dasharray:none;stroke-opacity:1"
             d="M 0,0 C -1.432,0 -2.645,0.452 -3.41,0.831 L -3.802,1.025 -4.193,0.831 C -4.955,0.452 -6.165,0 -7.602,0 c -1.304,0 -2.52,0.383 -3.615,1.139 -2.271,1.57 -8.822,8.244 -9.832,15.846 -0.499,3.757 0.474,7.118 2.894,9.991 0.256,0.259 3.374,3.313 7.151,3.313 0.236,0 0.474,-0.013 0.706,-0.037 1.905,-0.199 2.521,-0.453 3.016,-0.658 0.678,-0.28 1.207,-0.451 3.482,-0.458 2.275,0.007 2.803,0.178 3.478,0.457 0.497,0.205 1.114,0.46 3.018,0.659 0.232,0.025 0.47,0.037 0.707,0.037 3.715,0 6.834,-2.996 7.108,-3.268 2.447,-2.903 3.435,-6.281 2.935,-10.038 C 12.433,9.374 5.883,2.707 3.612,1.14 2.519,0.383 1.304,0 0,0 Z" /></g><g
           transform="translate(150.5843,202.6828)"
           id="g4263"><path
             id="path4265"
             style="fill:none;stroke:#000000;stroke-width:1;stroke-linecap:butt;stroke-linejoin:miter;stroke-miterlimit:10;stroke-dasharray:none;stroke-opacity:1"
             d="m 0,0 c 0.115,1.95 0.821,3.697 2.135,5.298 0.734,0.701 2.764,2.25 4.719,2.25 0.121,0 0.244,-0.007 0.363,-0.019 C 8.646,7.38 9.001,7.233 9.315,7.103" /></g><g
           transform="translate(151.6669,197.0009)"
           id="g4267"><path
             id="path4269"
             style="fill:none;stroke:#000000;stroke-width:1;stroke-linecap:butt;stroke-linejoin:miter;stroke-miterlimit:10;stroke-dasharray:none;stroke-opacity:1"
             d="M 0,0 C -0.226,0.558 -0.425,1.128 -0.589,1.705" /></g><g
           transform="translate(358.5006,475.6098)"
           id="g4271"><path
             id="path4273"
             style="fill:none;stroke:#000000;stroke-width:1;stroke-linecap:butt;stroke-linejoin:miter;stroke-miterlimit:10;stroke-dasharray:none;stroke-opacity:1"
             d="m 0,0 c -0.42,3.188 -2.951,5.706 -6.143,6.117 0.287,1.483 0.759,2.913 1.649,4.191 0.987,1.416 2.449,2.358 4.098,2.827 1.547,0.44 3.086,0.476 4.663,0.469 l 0,5.623 C 0.457,18.905 -3.656,17.936 -6.339,15.012 -7.852,13.363 -8.852,11.457 -9.4,9.29 -9.661,8.256 -9.792,7.214 -9.857,6.166 -13.323,6.01 -16.146,3.383 -16.593,0.001" /></g><g
           transform="translate(363.2898,475.476)"
           id="g4275"><path
             id="path4277"
             style="fill:none;stroke:#000000;stroke-width:1;stroke-linecap:butt;stroke-linejoin:miter;stroke-miterlimit:10;stroke-dasharray:none;stroke-opacity:1"
             d="m 0,0 -1.528,0.185 c -1.413,0.171 -2.77,0.084 -4.043,-0.196 -1.892,1.18 -4.169,1.885 -6.68,1.885 l -1.67,0 c -2.511,0 -4.787,-0.705 -6.679,-1.885 -1.273,0.28 -2.631,0.367 -4.044,0.196 L -26.172,0 c -6.622,-0.802 -10.911,-6.575 -9.681,-12.416 l 4.336,-20.595 c 0.814,-3.869 5.379,-6.338 10.245,-5.749 l 0.183,0.022 c 1.897,-1.557 4.535,-2.517 7.39,-2.517 l 1.227,0 c 2.854,0 5.493,0.96 7.389,2.517 l 0.184,-0.022 c 4.865,-0.589 9.43,1.88 10.245,5.749 l 4.336,20.595 C 10.911,-6.575 6.622,-0.802 0,0 Z" /></g><g
           transform="translate(337.2865,466.2672)"
           id="g4279"><path
             id="path4281"
             style="fill:none;stroke:#000000;stroke-width:1;stroke-linecap:butt;stroke-linejoin:miter;stroke-miterlimit:10;stroke-dasharray:none;stroke-opacity:1"
             d="M 0,0 C 0.105,3.877 2.266,7.348 5.596,9.333" /></g><g
           transform="translate(360.9377,440.8797)"
           id="g4283"><path
             id="path4285"
             style="fill:none;stroke:#000000;stroke-width:1;stroke-linecap:butt;stroke-linejoin:miter;stroke-miterlimit:10;stroke-dasharray:none;stroke-opacity:1"
             d="m 0,0 c -0.933,-3.845 -5.22,-6.659 -10.12,-6.659 l -1.227,0 c -4.653,0 -8.751,2.536 -9.953,6.082" /></g><g
           transform="translate(342.8824,475.6005)"
           id="g4287"><path
             id="path4289"
             style="fill:none;stroke:#000000;stroke-width:1;stroke-linecap:butt;stroke-linejoin:miter;stroke-miterlimit:10;stroke-dasharray:none;stroke-opacity:1"
             d="m 0,0 c 1.852,1.104 4.065,1.749 6.487,1.749 l 1.67,0 c 6.776,0 11.918,-5.049 12.082,-11.082" /></g><g
           transform="translate(331.6538,459.0533)"
           id="g4291"><path
             id="path4293"
             style="fill:none;stroke:#000000;stroke-width:1;stroke-linecap:butt;stroke-linejoin:miter;stroke-miterlimit:10;stroke-dasharray:none;stroke-opacity:1"
             d="m 0,0 -0.987,4.687 c -0.38,1.803 0.025,3.654 1.139,5.21 0.46,0.643 1.026,1.208 1.672,1.681" /></g><path
           id="path4295"
           style="fill:none;stroke:#64b357;stroke-width:1;stroke-linecap:butt;stroke-linejoin:miter;stroke-miterlimit:10;stroke-dasharray:none;stroke-opacity:1"
           d="m 366.879,448.683 -33.182,0 0,13.945 33.182,0 0,-13.945 z" /><g
           transform="translate(362.3783,453.2597)"
           id="g4297"><path
             id="path4299"
             style="fill:none;stroke:#64b357;stroke-width:1;stroke-linecap:butt;stroke-linejoin:miter;stroke-miterlimit:10;stroke-dasharray:none;stroke-opacity:1"
             d="m 0,0 c -0.614,-0.672 -1.498,-1.094 -2.481,-1.094 -1.856,0 -3.36,1.505 -3.36,3.36 0,1.856 1.504,3.361 3.36,3.361 0.928,0 1.768,-0.377 2.376,-0.985" /></g><g
           transform="translate(355.3018,458.8863)"
           id="g4301"><path
             id="path4303"
             style="fill:none;stroke:#64b357;stroke-width:1;stroke-linecap:butt;stroke-linejoin:miter;stroke-miterlimit:10;stroke-dasharray:none;stroke-opacity:1"
             d="m 0,0 c 0,-0.564 -0.457,-1.021 -1.021,-1.021 -0.564,0 -1.022,0.457 -1.022,1.021 0,0.564 0.458,1.021 1.022,1.021 C -0.457,1.021 0,0.564 0,0 Z" /></g><g
           transform="translate(343.2966,453.4535)"
           id="g4305"><path
             id="path4307"
             style="fill:none;stroke:#64b357;stroke-width:1;stroke-linecap:butt;stroke-linejoin:miter;stroke-miterlimit:10;stroke-dasharray:none;stroke-opacity:1"
             d="m 0,0 -5.099,0 4.378,4.951 0,-7.137" /></g><g
           transform="translate(346.0531,457.2295)"
           id="g4309"><path
             id="path4311"
             style="fill:none;stroke:#64b357;stroke-width:1;stroke-linecap:butt;stroke-linejoin:miter;stroke-miterlimit:10;stroke-dasharray:none;stroke-opacity:1"
             d="m 0,0 c 0,1.143 0.927,2.07 2.07,2.07 1.144,0 2.071,-0.927 2.071,-2.07 0,-0.565 -0.227,-1.078 -0.594,-1.451 l -0.001,-0.002 -3.611,-3.611 5.124,0" /></g><g
           transform="translate(180.6272,324.8225)"
           id="g4313"><path
             id="path4315"
             style="fill:none;stroke:#000000;stroke-width:1;stroke-linecap:square;stroke-linejoin:miter;stroke-miterlimit:10;stroke-dasharray:none;stroke-opacity:1"
             d="m 0,0 c -0.133,6.884 -5.745,12.426 -12.66,12.426 -4.42,0 -8.306,-2.265 -10.574,-5.694 -1.059,0.766 -2.357,1.223 -3.765,1.223 -3.555,0 -6.438,-2.883 -6.438,-6.438 0,-0.378 0.039,-0.745 0.102,-1.105 -3.306,-1.49 -5.611,-4.806 -5.611,-8.668 0,-5.252 4.258,-9.51 9.51,-9.51 l 27.935,0 c 4.943,0 8.951,4.007 8.951,8.951 0,4.43 -3.223,8.1 -7.45,8.815 z" /></g><g
           transform="translate(147.31,321.4066)"
           id="g4317"><path
             id="path4319"
             style="fill:none;stroke:#000000;stroke-width:1;stroke-linecap:square;stroke-linejoin:miter;stroke-miterlimit:10;stroke-dasharray:none;stroke-opacity:1"
             d="M 0,0 C 0.048,0.038 0.096,0.076 0.144,0.112" /></g><g
           transform="translate(146.4002,312.6186)"
           id="g4321"><path
             id="path4323"
             style="fill:none;stroke:#000000;stroke-width:1;stroke-linecap:square;stroke-linejoin:miter;stroke-miterlimit:10;stroke-dasharray:none;stroke-opacity:1"
             d="m 0,0 c -0.887,1.074 -1.42,2.45 -1.42,3.948 0,1.212 0.357,2.371 0.99,3.353" /></g><g
           transform="translate(157.2283,331.6777)"
           id="g4325"><path
             id="path4327"
             style="fill:none;stroke:#000000;stroke-width:1;stroke-linecap:square;stroke-linejoin:miter;stroke-miterlimit:10;stroke-dasharray:none;stroke-opacity:1"
             d="M 0,0 C 1.713,-1.157 2.839,-3.116 2.839,-5.339" /></g><g
           transform="translate(181.5282,324.6321)"
           id="g4329"><path
             id="path4331"
             style="fill:none;stroke:#000000;stroke-width:1;stroke-linecap:square;stroke-linejoin:miter;stroke-miterlimit:10;stroke-dasharray:none;stroke-opacity:1"
             d="m 0,0 c -0.764,0.212 -1.57,0.326 -2.402,0.326 l -2.036,0" /></g><g
           transform="translate(224.5998,310.0522)"
           id="g4333"><path
             id="path4335"
             style="fill:none;stroke:#000000;stroke-width:1;stroke-linecap:butt;stroke-linejoin:miter;stroke-miterlimit:10;stroke-dasharray:none;stroke-opacity:1"
             d="m 0,0 c 0,-1.754 1.427,-3.18 3.18,-3.18 0.176,0 0.355,0.017 0.545,0.053 4.815,-2.461 11.784,-3.87 19.173,-3.87 6.758,0 13.095,1.156 17.87,3.258 0.447,-0.052 0.835,-0.077 1.211,-0.077 5.962,0 10.813,4.85 10.813,10.813 0,0.17 -0.018,0.336 -0.026,0.504 0.026,0.119 0.026,0.241 -0.017,0.355 -0.442,5.561 -5.098,9.953 -10.77,9.953 -3.756,0 -7.22,-1.943 -9.188,-5.11 -1.648,0.848 -3.516,1.294 -5.441,1.294 -2.777,0 -5.408,-0.93 -7.403,-2.587 -0.09,0.87 -0.179,1.919 -0.251,3.114 0.019,0.105 0.016,0.213 -0.019,0.315 -0.16,2.816 -0.22,6.425 0.039,10.567 0.543,8.683 3.948,11.093 4.648,11.607 l 2.608,2 1.645,-2 6.25,0 c 0.184,0 0.357,0.079 0.478,0.217 l 2.024,5.606 c 0.203,0.232 0.211,0.576 0.018,0.816 l -5.088,6.361 c -0.19,0.237 -0.52,0.307 -0.79,0.167 0,0 -14.652,-9.411 -14.652,-9.648 0,-0.035 -1.645,-2.904 -4.675,-7.752 L 11.586,31.825 C 8.726,27.264 6.256,23.324 3.849,16.102 2.071,10.768 1.517,5.464 1.345,2.584 0.508,1.99 0,1.03 0,0 Z" /></g><g
           transform="translate(230.3567,320.6118)"
           id="g4337"><path
             id="path4339"
             style="fill:none;stroke:#000000;stroke-width:1;stroke-linecap:butt;stroke-linejoin:miter;stroke-miterlimit:10;stroke-dasharray:none;stroke-opacity:1"
             d="M 0,0 C -0.73,-3.368 -1.01,-6.378 -1.117,-8.172 L -1.156,-8.82" /></g><g
           transform="translate(230.7808,322.3993)"
           id="g4341"><path
             id="path4343"
             style="fill:none;stroke:#000000;stroke-width:1;stroke-linecap:butt;stroke-linejoin:miter;stroke-miterlimit:10;stroke-dasharray:none;stroke-opacity:1"
             d="M 0,0 C -0.082,-0.319 -0.161,-0.636 -0.235,-0.951" /></g><g
           transform="translate(263.2614,323.7967)"
           id="g4345"><path
             id="path4347"
             style="fill:none;stroke:#000000;stroke-width:1;stroke-linecap:butt;stroke-linejoin:miter;stroke-miterlimit:10;stroke-dasharray:none;stroke-opacity:1"
             d="M 0,0 C -0.235,-0.115 -0.464,-0.243 -0.685,-0.383" /></g><g
           transform="translate(273.1099,320.7344)"
           id="g4349"><path
             id="path4351"
             style="fill:none;stroke:#000000;stroke-width:1;stroke-linecap:butt;stroke-linejoin:miter;stroke-miterlimit:10;stroke-dasharray:none;stroke-opacity:1"
             d="M 0,0 C -1.3,2.287 -3.763,3.828 -6.531,3.828 -7.164,3.828 -7.785,3.75 -8.38,3.6" /></g><g
           transform="translate(248.9762,320.2)"
           id="g4353"><path
             id="path4355"
             style="fill:none;stroke:#000000;stroke-width:1;stroke-linecap:butt;stroke-linejoin:miter;stroke-miterlimit:10;stroke-dasharray:none;stroke-opacity:1"
             d="M 0,0 C -0.25,-0.093 -0.495,-0.197 -0.734,-0.311" /></g><g
           transform="translate(258.4315,317.802)"
           id="g4357"><path
             id="path4359"
             style="fill:none;stroke:#000000;stroke-width:1;stroke-linecap:butt;stroke-linejoin:miter;stroke-miterlimit:10;stroke-dasharray:none;stroke-opacity:1"
             d="M 0,0 C -1.581,1.796 -3.896,2.931 -6.471,2.931 -7.041,2.931 -7.6,2.875 -8.14,2.769" /></g><g
           transform="translate(260.3899,320.5412)"
           id="g4361"><path
             id="path4363"
             style="fill:none;stroke:#000000;stroke-width:1;stroke-linecap:butt;stroke-linejoin:miter;stroke-miterlimit:10;stroke-dasharray:none;stroke-opacity:1"
             d="m 0,0 c -2.157,2.157 -5.137,3.491 -8.429,3.491 -4.076,0 -7.674,-2.045 -9.823,-5.166" /></g><g
           transform="translate(251.4487,317.4562)"
           id="g4365"><path
             id="path4367"
             style="fill:none;stroke:#64b357;stroke-width:1;stroke-linecap:butt;stroke-linejoin:miter;stroke-miterlimit:10;stroke-dasharray:none;stroke-opacity:1"
             d="m 0,0 -2.431,-5.42 3.421,0.415 -3.421,-6.324" /></g><g
           transform="translate(251.5712,349.0609)"
           id="g4369"><path
             id="path4371"
             style="fill:none;stroke:#000000;stroke-width:1;stroke-linecap:butt;stroke-linejoin:miter;stroke-miterlimit:10;stroke-dasharray:none;stroke-opacity:1"
             d="M 0,0 0,1.417 3.637,2.477 4.146,2.625 4.937,1" /></g><g
           transform="translate(255.7167,351.6859)"
           id="g4373"><path
             id="path4375"
             style="fill:none;stroke:#000000;stroke-width:1;stroke-linecap:butt;stroke-linejoin:miter;stroke-miterlimit:10;stroke-dasharray:none;stroke-opacity:1"
             d="M 0,0 0.792,2.045" /></g><path
           id="path4377"
           style="fill:none;stroke:#64b357;stroke-width:1;stroke-linecap:butt;stroke-linejoin:miter;stroke-miterlimit:10;stroke-dasharray:none;stroke-opacity:1"
           d="m 172.078,476.737 -19.901,0 0,6.767 19.901,0 0,-6.767 z" /><g
           transform="translate(167.9053,470.6845)"
           id="g4379"><path
             id="path4381"
             style="fill:none;stroke:#64b357;stroke-width:1;stroke-linecap:butt;stroke-linejoin:round;stroke-miterlimit:10;stroke-dasharray:none;stroke-opacity:1"
             d="m 0,0 8.345,0 0,-19.922" /></g><g
           transform="translate(176.2508,470.6845)"
           id="g4383"><path
             id="path4385"
             style="fill:none;stroke:#64b357;stroke-width:1;stroke-linecap:butt;stroke-linejoin:round;stroke-miterlimit:10;stroke-dasharray:none;stroke-opacity:1"
             d="M 0,0 -8.345,0 -4.173,6.053 0,0 Z" /></g><g
           transform="translate(167.9053,470.6845)"
           id="g4387"><path
             id="path4389"
             style="fill:none;stroke:#64b357;stroke-width:1;stroke-linecap:butt;stroke-linejoin:round;stroke-miterlimit:10;stroke-dasharray:none;stroke-opacity:1"
             d="m 0,0 -19.901,0 4.173,6.053 19.901,0 L 0,0 Z" /></g><g
           transform="translate(148.0045,440.2945)"
           id="g4391"><path
             id="path4393"
             style="fill:none;stroke:#64b357;stroke-width:1;stroke-linecap:butt;stroke-linejoin:round;stroke-miterlimit:10;stroke-dasharray:none;stroke-opacity:1"
             d="m 0,0 0,30.39 19.901,0 0,-19.052" /></g><g
           transform="translate(151.306,466.8462)"
           id="g4395"><path
             id="path4397"
             style="fill:none;stroke:#64b357;stroke-width:1;stroke-linecap:butt;stroke-linejoin:miter;stroke-miterlimit:10;stroke-dasharray:none;stroke-opacity:1"
             d="M 0,0 0,-8.873" /></g><g
           transform="translate(151.306,454.1904)"
           id="g4399"><path
             id="path4401"
             style="fill:none;stroke:#64b357;stroke-width:1;stroke-linecap:butt;stroke-linejoin:miter;stroke-miterlimit:10;stroke-dasharray:none;stroke-opacity:1"
             d="M 0,0 0,-3.144" /></g><g
           transform="translate(164.3379,437.9499)"
           id="g4403"><path
             id="path4405"
             style="fill:none;stroke:#000000;stroke-width:1;stroke-linecap:butt;stroke-linejoin:miter;stroke-miterlimit:10;stroke-dasharray:none;stroke-opacity:1"
             d="M 0,0 C -0.866,5.381 -0.088,11.679 3.641,13.683 8.915,16.518 18.093,9.693 20.927,4.42 23.762,-0.854 21.784,-7.427 16.51,-10.261 12.329,-12.509 7.33,-11.731 4.026,-8.683" /></g><g
           transform="translate(156.1431,426.3949)"
           id="g4407"><path
             id="path4409"
             style="fill:none;stroke:#000000;stroke-width:1;stroke-linecap:butt;stroke-linejoin:miter;stroke-miterlimit:10;stroke-dasharray:none;stroke-opacity:1"
             d="m 0,0 c -2.366,0 -4.686,0.326 -6.896,0.97 -6.538,1.682 -11.444,5.417 -13.495,10.256 -1.083,2.557 -1.16,5.126 -0.204,6.87 l 0.043,0.079 0.03,0.085 c 0.916,2.605 -0.594,5.627 -1.807,8.056 -0.394,0.789 -0.761,1.525 -1.009,2.168 0.211,0.352 0.618,1.013 1.062,1.733 0.659,1.07 1.276,2.074 1.595,2.61 0.568,-2.251 1.597,-4.393 2.593,-6.467 0.668,-1.391 1.299,-2.705 1.713,-3.911 1.105,-3.223 9.12,-10.799 15.44,-11.637 1.279,-0.169 2.404,-0.251 3.439,-0.251 4.816,0 7.884,1.731 14.607,5.522 l 0.155,0.088 c 1.356,0.764 2.883,1.624 4.591,2.563 0.397,-0.298 0.771,-0.64 1.134,-0.972 0.364,-0.334 0.741,-0.68 1.143,-0.981 C 22.047,7.368 11.459,0 0.006,0 L 0,0 Z" /></g><g
           transform="translate(165.787,434.2806)"
           id="g4411"><path
             id="path4413"
             style="fill:none;stroke:#000000;stroke-width:1;stroke-linecap:butt;stroke-linejoin:miter;stroke-miterlimit:10;stroke-dasharray:none;stroke-opacity:1"
             d="M 0,0 C 0.733,0.343 1.465,0.728 2.195,1.155" /></g><g
           transform="translate(152.1197,432.324)"
           id="g4415"><path
             id="path4417"
             style="fill:none;stroke:#000000;stroke-width:1;stroke-linecap:butt;stroke-linejoin:miter;stroke-miterlimit:10;stroke-dasharray:none;stroke-opacity:1"
             d="M 0,0 C 2.991,-0.523 6.198,-0.429 9.46,0.427" /></g><g
           transform="translate(135.6068,448.4193)"
           id="g4419"><path
             id="path4421"
             style="fill:none;stroke:#000000;stroke-width:1;stroke-linecap:butt;stroke-linejoin:miter;stroke-miterlimit:10;stroke-dasharray:none;stroke-opacity:1"
             d="M 0,0 C 0.97,-6.401 5.382,-11.792 11.386,-14.515" /></g><g
           transform="translate(275.4448,463.4029)"
           id="g4423"><path
             id="path4425"
             style="fill:none;stroke:#000000;stroke-width:1;stroke-linecap:butt;stroke-linejoin:miter;stroke-miterlimit:10;stroke-dasharray:none;stroke-opacity:1"
             d="m 0,0 c 1.816,-3.496 2.842,-7.468 2.842,-11.68 0,-14.014 -11.361,-25.375 -25.375,-25.375 -6.558,0 -12.535,2.488 -17.038,6.571" /></g><g
           transform="translate(233.8247,435.002)"
           id="g4427"><path
             id="path4429"
             style="fill:none;stroke:#000000;stroke-width:1;stroke-linecap:butt;stroke-linejoin:miter;stroke-miterlimit:10;stroke-dasharray:none;stroke-opacity:1"
             d="m 0,0 c -3.915,4.465 -6.288,10.316 -6.288,16.721 0,14.014 11.361,25.375 25.375,25.375 4.059,0 7.895,-0.953 11.297,-2.648" /></g><g
           transform="translate(233.4745,462.9298)"
           id="g4431"><path
             id="path4433"
             style="fill:none;stroke:#000000;stroke-width:1;stroke-linecap:butt;stroke-linejoin:miter;stroke-miterlimit:10;stroke-dasharray:none;stroke-opacity:1"
             d="M 0,0 C 3.884,6.71 11.142,11.234 19.437,11.234" /></g><g
           transform="translate(231.4814,445.057)"
           id="g4435"><path
             id="path4437"
             style="fill:none;stroke:#000000;stroke-width:1;stroke-linecap:butt;stroke-linejoin:miter;stroke-miterlimit:10;stroke-dasharray:none;stroke-opacity:1"
             d="m 0,0 c -0.657,2.107 -1.011,4.346 -1.011,6.666 0,1.547 0.158,3.057 0.457,4.517" /></g><g
           transform="translate(265.1249,455.4478)"
           id="g4439"><path
             id="path4441"
             style="fill:none;stroke:#000000;stroke-width:1;stroke-linecap:butt;stroke-linejoin:miter;stroke-miterlimit:10;stroke-dasharray:none;stroke-opacity:1"
             d="m 0,0 c 0.359,-1.178 0.552,-2.429 0.552,-3.725 0,-7.05 -5.715,-12.765 -12.765,-12.765 -2.464,0 -4.765,0.698 -6.716,1.907" /></g><g
           transform="translate(241.8237,445.394)"
           id="g4443"><path
             id="path4445"
             style="fill:none;stroke:#000000;stroke-width:1;stroke-linecap:butt;stroke-linejoin:miter;stroke-miterlimit:10;stroke-dasharray:none;stroke-opacity:1"
             d="m 0,0 c -1.067,1.865 -1.677,4.026 -1.677,6.329 0,7.05 5.715,12.765 12.765,12.765 1.14,0 2.244,-0.149 3.295,-0.429" /></g><g
           transform="translate(265.4147,442.2389)"
           id="g4447"><path
             id="path4449"
             style="fill:none;stroke:#000000;stroke-width:1;stroke-linecap:butt;stroke-linejoin:miter;stroke-miterlimit:10;stroke-dasharray:none;stroke-opacity:1"
             d="m 0,0 c -2.87,-3.774 -7.407,-6.215 -12.503,-6.215 -0.933,0 -1.847,0.082 -2.736,0.239" /></g><g
           transform="translate(268.5296,453.3258)"
           id="g4451"><path
             id="path4453"
             style="fill:none;stroke:#000000;stroke-width:1;stroke-linecap:butt;stroke-linejoin:miter;stroke-miterlimit:10;stroke-dasharray:none;stroke-opacity:1"
             d="m 0,0 c 0.054,-0.527 0.081,-1.062 0.081,-1.603 0,-1.861 -0.325,-3.648 -0.923,-5.306" /></g><g
           transform="translate(270.0698,488.4821)"
           id="g4455"><path
             id="path4457"
             style="fill:none;stroke:#64b357;stroke-width:1;stroke-linecap:butt;stroke-linejoin:miter;stroke-miterlimit:10;stroke-dasharray:none;stroke-opacity:1"
             d="m 0,0 c -1.57,-5.201 -0.467,-10.572 2.517,-14.64 4.736,1.736 8.627,5.6 10.198,10.801 1.57,5.201 0.467,10.572 -2.517,14.64 C 5.462,9.064 1.57,5.201 0,0 Z" /></g><g
           transform="translate(282.6123,470.4866)"
           id="g4459"><path
             id="path4461"
             style="fill:none;stroke:#64b357;stroke-width:1;stroke-linecap:butt;stroke-linejoin:miter;stroke-miterlimit:10;stroke-dasharray:none;stroke-opacity:1"
             d="M 0,0 C -2.862,-0.864 -5.817,-0.257 -8.055,1.385 -7.1,3.991 -4.974,6.132 -2.112,6.996 0.749,7.86 3.705,7.253 5.943,5.611 4.987,3.005 2.862,0.864 0,0 Z" /></g><g
           transform="translate(226.8614,425.9726)"
           id="g4463"><path
             id="path4465"
             style="fill:none;stroke:#000000;stroke-width:1;stroke-linecap:butt;stroke-linejoin:miter;stroke-miterlimit:10;stroke-dasharray:none;stroke-opacity:1"
             d="m 0,0 40.259,52.259 12,-12 L 0,0 Z" /></g><g
           transform="translate(260.4066,469.3043)"
           id="g4467"><path
             id="path4469"
             style="fill:none;stroke:#000000;stroke-width:1;stroke-linecap:butt;stroke-linejoin:miter;stroke-miterlimit:10;stroke-dasharray:none;stroke-opacity:1"
             d="M 0,0 5.228,-5.228" /></g><g
           transform="translate(264.9414,455.3087)"
           id="g4471"><path
             id="path4473"
             style="fill:none;stroke:#000000;stroke-width:1;stroke-linecap:butt;stroke-linejoin:miter;stroke-miterlimit:10;stroke-dasharray:none;stroke-opacity:1"
             d="M 0,0 -3.842,3.673" /></g><g
           transform="translate(251.3683,457.5361)"
           id="g4475"><path
             id="path4477"
             style="fill:none;stroke:#000000;stroke-width:1;stroke-linecap:butt;stroke-linejoin:miter;stroke-miterlimit:10;stroke-dasharray:none;stroke-opacity:1"
             d="M 0,0 3.284,-3.301" /></g></g></g></g></svg>