<?xml version="1.0" encoding="utf-8"?>
<!-- Generator: Adobe Illustrator 16.0.0, SVG Export Plug-In . SVG Version: 6.00 Build 0)  -->
<!DOCTYPE svg PUBLIC "-//W3C//DTD SVG 1.1//EN" "http://www.w3.org/Graphics/SVG/1.1/DTD/svg11.dtd">
<svg version="1.1" id="Слой_1" xmlns="http://www.w3.org/2000/svg" xmlns:xlink="http://www.w3.org/1999/xlink" x="0px" y="0px"
	 width="524.41px" height="666.14px" viewBox="0 0 524.41 666.14" enable-background="new 0 0 524.41 666.14" xml:space="preserve">
<polyline fill="none" stroke="#000000" stroke-linecap="round" stroke-miterlimit="10" points="177.26,332.957 184.957,317.521 
	204.82,311.384 205.705,314.25 187.068,320.009 179.22,335.75 "/>
<g>
	<defs>
		<rect id="SVGID_1_" width="524.41" height="666.14"/>
	</defs>
	<clipPath id="SVGID_2_">
		<use xlink:href="#SVGID_1_"  overflow="visible"/>
	</clipPath>
	<path clip-path="url(#SVGID_2_)" fill="none" stroke="#64B357" stroke-miterlimit="10" d="M142.31,346.15
		c-5.494-1.616-9.505-6.696-9.505-12.713c0-7.318,5.932-13.25,13.25-13.25c6.956,0,12.66,5.36,13.207,12.175"/>
	<path clip-path="url(#SVGID_2_)" fill="none" stroke="#64B357" stroke-miterlimit="10" d="M137.609,326.061
		c-1.569,1.795-2.57,4.091-2.739,6.619h9.358L137.609,326.061z M145.298,331.61v-9.358c-2.528,0.169-4.824,1.171-6.619,2.739
		L145.298,331.61z M146.811,322.252v9.358l6.619-6.619C151.635,323.423,149.339,322.421,146.811,322.252z M134.87,334.193
		c0.169,2.529,1.171,4.824,2.739,6.619l6.619-6.619H134.87z M148.079,336.531l-1.268-1.268v5.875 M150.121,334.193h-2.24
		l1.071,1.071 M145.298,342.117v-6.854l-6.619,6.619c1.304,1.14,2.873,1.979,4.603,2.419 M157.239,332.68
		c-0.169-2.528-1.171-4.824-2.74-6.619l-6.618,6.619H157.239z"/>
	<polyline clip-path="url(#SVGID_2_)" fill="none" stroke="#000000" stroke-miterlimit="10" points="344.241,322.037 
		344.241,317.311 350.311,317.311 350.311,322.046 	"/>
	<path clip-path="url(#SVGID_2_)" fill="none" stroke="#000000" stroke-miterlimit="10" d="M347.227,321.881
		c-15.663,0-28.36,12.697-28.36,28.359h56.72C375.586,334.579,362.89,321.881,347.227,321.881z"/>
	<path clip-path="url(#SVGID_2_)" fill="none" stroke="#000000" stroke-miterlimit="10" d="M323.771,341.419
		c2.316-6.141,6.979-11.14,12.89-13.9"/>
	<path clip-path="url(#SVGID_2_)" fill="none" stroke="#000000" stroke-miterlimit="10" d="M322.385,346.939
		c0.095-0.71,0.219-1.411,0.37-2.102"/>
	
		<rect x="313.914" y="350.241" clip-path="url(#SVGID_2_)" fill="none" stroke="#000000" stroke-miterlimit="10" width="66.624" height="4.866"/>
	<circle clip-path="url(#SVGID_2_)" fill="none" stroke="#64B357" stroke-miterlimit="10" cx="339.188" cy="336.148" r="2.186"/>
	<path clip-path="url(#SVGID_2_)" fill="none" stroke="#64B357" stroke-miterlimit="10" d="M343.436,344.106v-0.844
		c0-2.121-1.719-3.839-3.839-3.839h-0.817c-2.12,0-3.839,1.718-3.839,3.839v0.844H343.436z"/>
	
		<line clip-path="url(#SVGID_2_)" fill="none" stroke="#64B357" stroke-miterlimit="10" x1="347.275" y1="335.819" x2="359.513" y2="335.819"/>
	
		<line clip-path="url(#SVGID_2_)" fill="none" stroke="#64B357" stroke-miterlimit="10" x1="347.275" y1="339.035" x2="356.34" y2="339.035"/>
	
		<line clip-path="url(#SVGID_2_)" fill="none" stroke="#64B357" stroke-miterlimit="10" x1="347.275" y1="342.25" x2="358.418" y2="342.25"/>
	<path clip-path="url(#SVGID_2_)" fill="none" stroke="#64B357" stroke-miterlimit="10" d="M164.642,453.761
		c0.663-6.73-1.814-9.978-3.831-12.092"/>
	<path clip-path="url(#SVGID_2_)" fill="none" stroke="#64B357" stroke-miterlimit="10" d="M169.534,442.487
		c-2.898,1.214-4.358,3.49-5.038,6.328c2.499,1.509,5.145,2.066,8.043,0.854s5.374-3.915,6.053-6.753
		C176.094,441.408,172.432,441.274,169.534,442.487z"/>
	<path clip-path="url(#SVGID_2_)" fill="none" stroke="#000000" stroke-linecap="round" stroke-miterlimit="10" d="M168.06,466.857
		c-0.514,1.337-1.81,2.286-3.328,2.286c-1.562,0-2.89-1.006-3.371-2.404"/>
	
		<line clip-path="url(#SVGID_2_)" fill="none" stroke="#000000" stroke-linecap="round" stroke-miterlimit="10" x1="158.709" y1="464.005" x2="158.709" y2="464.59"/>
	
		<line clip-path="url(#SVGID_2_)" fill="none" stroke="#000000" stroke-linecap="round" stroke-miterlimit="10" x1="170.438" y1="464.005" x2="170.438" y2="464.59"/>
	<path clip-path="url(#SVGID_2_)" fill="none" stroke="#000000" stroke-linecap="round" stroke-miterlimit="10" d="M182.761,463.829
		c0,0,8.188,0.233,8.188-5.819"/>
	<path clip-path="url(#SVGID_2_)" fill="none" stroke="#000000" stroke-linecap="round" stroke-miterlimit="10" d="M147.625,468.784
		c0,0-4.653,6.88-2.904,10.548"/>
	<path clip-path="url(#SVGID_2_)" fill="none" stroke="#000000" stroke-linecap="round" stroke-miterlimit="10" d="M192.05,458.19
		h-2.203c-0.365,0-0.682-0.253-0.763-0.609l-0.546-2.405c-0.112-0.488,0.26-0.955,0.762-0.955h3.297
		c0.502,0,0.874,0.467,0.762,0.955l-0.546,2.405C192.732,457.937,192.415,458.19,192.05,458.19z"/>
	<path clip-path="url(#SVGID_2_)" fill="none" stroke="#000000" stroke-linecap="round" stroke-miterlimit="10" d="M143.879,480.359
		l1.987-0.951c0.33-0.157,0.724-0.065,0.951,0.22l1.531,1.935c0.312,0.393,0.177,0.974-0.276,1.19l-2.973,1.423
		c-0.453,0.217-0.99-0.043-1.1-0.532l-0.545-2.406C143.373,480.88,143.55,480.517,143.879,480.359z"/>
	<path clip-path="url(#SVGID_2_)" fill="none" stroke="#000000" stroke-linecap="round" stroke-miterlimit="10" d="M168.442,482.897
		c-1.432,0-2.645-0.452-3.41-0.831l-0.392-0.194l-0.391,0.194c-0.762,0.379-1.972,0.831-3.409,0.831
		c-1.304,0-2.52-0.383-3.615-1.139c-2.271-1.57-8.822-8.244-9.832-15.847c-0.499-3.757,0.474-7.118,2.894-9.991
		c0.256-0.259,3.374-3.313,7.151-3.313c0.236,0,0.474,0.013,0.706,0.037c1.905,0.199,2.521,0.453,3.016,0.658
		c0.678,0.279,1.207,0.45,3.482,0.458c2.275-0.008,2.803-0.179,3.478-0.457c0.497-0.205,1.114-0.46,3.018-0.659
		c0.232-0.025,0.47-0.037,0.707-0.037c3.715,0,6.834,2.996,7.108,3.268c2.447,2.903,3.435,6.281,2.935,10.038
		c-1.013,7.609-7.563,14.276-9.834,15.844C170.961,482.514,169.746,482.897,168.442,482.897z"/>
	<path clip-path="url(#SVGID_2_)" fill="none" stroke="#000000" stroke-miterlimit="10" d="M150.584,463.458
		c0.115-1.95,0.821-3.697,2.135-5.298c0.734-0.701,2.764-2.25,4.719-2.25c0.121,0,0.244,0.007,0.363,0.019
		c1.429,0.149,1.784,0.296,2.098,0.426"/>
	<path clip-path="url(#SVGID_2_)" fill="none" stroke="#000000" stroke-miterlimit="10" d="M151.667,469.139
		c-0.226-0.558-0.425-1.128-0.589-1.705"/>
	<path clip-path="url(#SVGID_2_)" fill="none" stroke="#000000" stroke-miterlimit="10" d="M358.501,190.53
		c-0.42-3.188-2.951-5.706-6.144-6.117c0.287-1.483,0.759-2.913,1.649-4.191c0.986-1.416,2.449-2.358,4.098-2.827
		c1.547-0.44,3.086-0.476,4.663-0.469v-5.623c-3.81,0.322-7.923,1.291-10.606,4.215c-1.513,1.649-2.513,3.555-3.061,5.722
		c-0.261,1.034-0.392,2.076-0.457,3.124c-3.466,0.156-6.289,2.783-6.736,6.165"/>
	<path clip-path="url(#SVGID_2_)" fill="none" stroke="#000000" stroke-miterlimit="10" d="M363.29,190.664l-1.528-0.185
		c-1.413-0.171-2.77-0.084-4.043,0.196c-1.892-1.18-4.169-1.885-6.68-1.885h-1.67c-2.512,0-4.787,0.705-6.68,1.885
		c-1.272-0.28-2.631-0.367-4.044-0.196l-1.527,0.185c-6.622,0.802-10.911,6.575-9.682,12.416l4.336,20.595
		c0.814,3.869,5.379,6.338,10.245,5.749l0.184-0.022c1.896,1.557,4.534,2.517,7.39,2.517h1.227c2.854,0,5.493-0.96,7.39-2.517
		l0.184,0.022c4.865,0.589,9.43-1.88,10.245-5.749l4.336-20.595C374.201,197.239,369.912,191.466,363.29,190.664z"/>
	<path clip-path="url(#SVGID_2_)" fill="none" stroke="#000000" stroke-miterlimit="10" d="M337.286,199.873
		c0.105-3.877,2.267-7.348,5.597-9.333"/>
	<path clip-path="url(#SVGID_2_)" fill="none" stroke="#000000" stroke-miterlimit="10" d="M360.938,225.26
		c-0.933,3.845-5.22,6.659-10.12,6.659h-1.227c-4.653,0-8.751-2.536-9.953-6.082"/>
	<path clip-path="url(#SVGID_2_)" fill="none" stroke="#000000" stroke-miterlimit="10" d="M342.883,190.54
		c1.852-1.104,4.064-1.749,6.486-1.749h1.67c6.776,0,11.918,5.049,12.082,11.082"/>
	<path clip-path="url(#SVGID_2_)" fill="none" stroke="#000000" stroke-miterlimit="10" d="M331.654,207.087l-0.987-4.687
		c-0.38-1.803,0.024-3.654,1.139-5.21c0.46-0.643,1.026-1.208,1.672-1.681"/>
	
		<rect x="333.697" y="203.512" clip-path="url(#SVGID_2_)" fill="none" stroke="#64B357" stroke-miterlimit="10" width="33.182" height="13.945"/>
	<path clip-path="url(#SVGID_2_)" fill="none" stroke="#64B357" stroke-miterlimit="10" d="M362.378,212.88
		c-0.613,0.672-1.498,1.094-2.48,1.094c-1.856,0-3.36-1.505-3.36-3.36c0-1.856,1.504-3.361,3.36-3.361
		c0.928,0,1.768,0.377,2.376,0.985"/>
	<circle clip-path="url(#SVGID_2_)" fill="none" stroke="#64B357" stroke-miterlimit="10" cx="354.28" cy="207.254" r="1.021"/>
	<polyline clip-path="url(#SVGID_2_)" fill="none" stroke="#64B357" stroke-miterlimit="10" points="343.297,212.687 
		338.197,212.687 342.575,207.736 342.575,214.873 	"/>
	<path clip-path="url(#SVGID_2_)" fill="none" stroke="#64B357" stroke-miterlimit="10" d="M346.053,208.911
		c0-1.143,0.928-2.07,2.07-2.07c1.145,0,2.071,0.927,2.071,2.07c0,0.565-0.228,1.078-0.595,1.451l-0.001,0.002l-3.61,3.611h5.124"/>
	<path clip-path="url(#SVGID_2_)" fill="none" stroke="#000000" stroke-linecap="square" stroke-miterlimit="10" d="
		M180.627,341.318c-0.133-6.884-5.745-12.426-12.66-12.426c-4.42,0-8.306,2.265-10.574,5.694c-1.059-0.766-2.357-1.223-3.765-1.223
		c-3.555,0-6.438,2.883-6.438,6.438c0,0.378,0.039,0.745,0.102,1.105c-3.306,1.49-5.611,4.806-5.611,8.668
		c0,5.252,4.258,9.51,9.51,9.51h27.935c4.943,0,8.951-4.007,8.951-8.951C188.077,345.703,184.854,342.033,180.627,341.318z"/>
	<path clip-path="url(#SVGID_2_)" fill="none" stroke="#000000" stroke-linecap="square" stroke-miterlimit="10" d="M147.31,344.734
		c0.048-0.038,0.096-0.076,0.144-0.112"/>
	<path clip-path="url(#SVGID_2_)" fill="none" stroke="#000000" stroke-linecap="square" stroke-miterlimit="10" d="M146.4,353.522
		c-0.887-1.074-1.42-2.45-1.42-3.948c0-1.212,0.357-2.371,0.99-3.354"/>
	<path clip-path="url(#SVGID_2_)" fill="none" stroke="#000000" stroke-linecap="square" stroke-miterlimit="10" d="
		M157.229,334.462c1.713,1.157,2.839,3.116,2.839,5.339"/>
	<path clip-path="url(#SVGID_2_)" fill="none" stroke="#000000" stroke-linecap="square" stroke-miterlimit="10" d="
		M181.528,341.508c-0.764-0.212-1.57-0.326-2.402-0.326h-2.036"/>
	<path clip-path="url(#SVGID_2_)" fill="none" stroke="#000000" stroke-miterlimit="10" d="M224.6,356.088
		c0,1.754,1.427,3.18,3.18,3.18c0.176,0,0.355-0.017,0.545-0.053c4.815,2.461,11.784,3.87,19.173,3.87
		c6.758,0,13.095-1.156,17.871-3.259c0.446,0.053,0.835,0.077,1.211,0.077c5.962,0,10.813-4.85,10.813-10.813
		c0-0.17-0.018-0.336-0.025-0.504c0.025-0.119,0.025-0.241-0.018-0.355c-0.441-5.561-5.098-9.953-10.77-9.953
		c-3.756,0-7.22,1.943-9.188,5.11c-1.648-0.849-3.516-1.294-5.441-1.294c-2.777,0-5.408,0.93-7.403,2.587
		c-0.09-0.87-0.179-1.919-0.251-3.114c0.019-0.104,0.016-0.213-0.019-0.314c-0.16-2.816-0.22-6.426,0.039-10.567
		c0.543-8.683,3.948-11.093,4.648-11.607l2.608-2l1.645,2h6.25c0.184,0,0.357-0.079,0.478-0.217l2.024-5.606
		c0.203-0.232,0.211-0.576,0.018-0.816l-5.088-6.361c-0.19-0.237-0.52-0.307-0.79-0.167c0,0-14.652,9.411-14.652,9.648
		c0,0.035-1.645,2.904-4.675,7.752l-0.596,0.951c-2.86,4.561-5.33,8.501-7.737,15.723c-1.778,5.334-2.332,10.638-2.504,13.519
		C225.108,354.098,224.6,355.058,224.6,356.088z"/>
	<path clip-path="url(#SVGID_2_)" fill="none" stroke="#000000" stroke-miterlimit="10" d="M230.357,345.529
		c-0.73,3.367-1.01,6.378-1.117,8.172l-0.039,0.647"/>
	<path clip-path="url(#SVGID_2_)" fill="none" stroke="#000000" stroke-miterlimit="10" d="M230.781,343.741
		c-0.082,0.319-0.161,0.636-0.235,0.951"/>
	<path clip-path="url(#SVGID_2_)" fill="none" stroke="#000000" stroke-miterlimit="10" d="M263.262,342.343
		c-0.235,0.115-0.464,0.243-0.686,0.383"/>
	<path clip-path="url(#SVGID_2_)" fill="none" stroke="#000000" stroke-miterlimit="10" d="M273.11,345.406
		c-1.301-2.287-3.764-3.828-6.531-3.828c-0.633,0-1.254,0.078-1.85,0.229"/>
	<path clip-path="url(#SVGID_2_)" fill="none" stroke="#000000" stroke-miterlimit="10" d="M248.976,345.94
		c-0.25,0.093-0.495,0.197-0.734,0.312"/>
	<path clip-path="url(#SVGID_2_)" fill="none" stroke="#000000" stroke-miterlimit="10" d="M258.432,348.338
		c-1.581-1.796-3.896-2.932-6.471-2.932c-0.57,0-1.129,0.057-1.669,0.162"/>
	<path clip-path="url(#SVGID_2_)" fill="none" stroke="#000000" stroke-miterlimit="10" d="M260.39,345.599
		c-2.157-2.157-5.137-3.491-8.429-3.491c-4.076,0-7.674,2.045-9.823,5.166"/>
	<polyline clip-path="url(#SVGID_2_)" fill="none" stroke="#64B357" stroke-miterlimit="10" points="251.449,348.684 
		249.018,354.104 252.438,353.689 249.018,360.013 	"/>
	<polyline clip-path="url(#SVGID_2_)" fill="none" stroke="#000000" stroke-miterlimit="10" points="251.571,317.079 
		251.571,315.662 255.208,314.602 255.717,314.454 256.508,316.079 	"/>
	
		<line clip-path="url(#SVGID_2_)" fill="none" stroke="#000000" stroke-miterlimit="10" x1="255.717" y1="314.454" x2="256.509" y2="312.409"/>
	
		<rect x="152.177" y="182.636" clip-path="url(#SVGID_2_)" fill="none" stroke="#64B357" stroke-miterlimit="10" width="19.901" height="6.767"/>
	<polyline clip-path="url(#SVGID_2_)" fill="none" stroke="#64B357" stroke-linejoin="round" stroke-miterlimit="10" points="
		167.905,195.456 176.25,195.456 176.25,215.377 	"/>
	<polygon clip-path="url(#SVGID_2_)" fill="none" stroke="#64B357" stroke-linejoin="round" stroke-miterlimit="10" points="
		176.251,195.456 167.906,195.456 172.078,189.403 	"/>
	<polygon clip-path="url(#SVGID_2_)" fill="none" stroke="#64B357" stroke-linejoin="round" stroke-miterlimit="10" points="
		167.905,195.456 148.004,195.456 152.177,189.403 172.078,189.403 	"/>
	<polyline clip-path="url(#SVGID_2_)" fill="none" stroke="#64B357" stroke-linejoin="round" stroke-miterlimit="10" points="
		148.004,225.846 148.004,195.456 167.905,195.456 167.905,214.508 	"/>
	
		<line clip-path="url(#SVGID_2_)" fill="none" stroke="#64B357" stroke-miterlimit="10" x1="151.306" y1="199.294" x2="151.306" y2="208.167"/>
	
		<line clip-path="url(#SVGID_2_)" fill="none" stroke="#64B357" stroke-miterlimit="10" x1="151.306" y1="211.95" x2="151.306" y2="215.094"/>
	<path clip-path="url(#SVGID_2_)" fill="none" stroke="#000000" stroke-miterlimit="10" d="M164.338,228.19
		c-0.866-5.381-0.088-11.679,3.641-13.683c5.274-2.835,14.452,3.99,17.286,9.263c2.835,5.274,0.857,11.847-4.417,14.681
		c-4.181,2.248-9.18,1.47-12.484-1.578"/>
	<path clip-path="url(#SVGID_2_)" fill="none" stroke="#000000" stroke-miterlimit="10" d="M156.143,239.745
		c-2.366,0-4.686-0.326-6.896-0.97c-6.538-1.682-11.444-5.417-13.495-10.256c-1.083-2.557-1.16-5.126-0.204-6.87l0.043-0.079
		l0.03-0.085c0.916-2.605-0.594-5.627-1.807-8.056c-0.394-0.789-0.761-1.525-1.009-2.168c0.211-0.352,0.618-1.013,1.062-1.733
		c0.659-1.07,1.276-2.074,1.595-2.61c0.568,2.251,1.597,4.393,2.593,6.467c0.668,1.391,1.299,2.705,1.713,3.911
		c1.105,3.223,9.12,10.799,15.44,11.637c1.279,0.169,2.404,0.251,3.439,0.251c4.816,0,7.884-1.731,14.607-5.522l0.155-0.088
		c1.356-0.764,2.883-1.624,4.591-2.563c0.397,0.298,0.771,0.64,1.134,0.972c0.364,0.334,0.741,0.68,1.143,0.981
		c-2.087,9.413-12.675,16.781-24.128,16.781H156.143z"/>
	<path clip-path="url(#SVGID_2_)" fill="none" stroke="#000000" stroke-miterlimit="10" d="M165.787,231.859
		c0.733-0.343,1.465-0.728,2.195-1.155"/>
	<path clip-path="url(#SVGID_2_)" fill="none" stroke="#000000" stroke-miterlimit="10" d="M152.12,233.816
		c2.991,0.523,6.198,0.429,9.46-0.427"/>
	<path clip-path="url(#SVGID_2_)" fill="none" stroke="#000000" stroke-miterlimit="10" d="M135.607,217.721
		c0.97,6.401,5.382,11.792,11.386,14.515"/>
	<path clip-path="url(#SVGID_2_)" fill="none" stroke="#000000" stroke-miterlimit="10" d="M275.444,202.737
		c1.816,3.496,2.843,7.468,2.843,11.68c0,14.014-11.361,25.375-25.375,25.375c-6.558,0-12.535-2.488-17.038-6.571"/>
	<path clip-path="url(#SVGID_2_)" fill="none" stroke="#000000" stroke-miterlimit="10" d="M233.825,231.138
		c-3.915-4.465-6.288-10.316-6.288-16.721c0-14.014,11.361-25.375,25.375-25.375c4.059,0,7.895,0.953,11.297,2.648"/>
	<path clip-path="url(#SVGID_2_)" fill="none" stroke="#000000" stroke-miterlimit="10" d="M233.475,203.21
		c3.884-6.71,11.142-11.234,19.437-11.234"/>
	<path clip-path="url(#SVGID_2_)" fill="none" stroke="#000000" stroke-miterlimit="10" d="M231.481,221.083
		c-0.657-2.107-1.011-4.346-1.011-6.666c0-1.547,0.158-3.057,0.457-4.517"/>
	<path clip-path="url(#SVGID_2_)" fill="none" stroke="#000000" stroke-miterlimit="10" d="M265.125,210.692
		c0.359,1.178,0.552,2.429,0.552,3.725c0,7.05-5.715,12.765-12.765,12.765c-2.464,0-4.765-0.698-6.716-1.907"/>
	<path clip-path="url(#SVGID_2_)" fill="none" stroke="#000000" stroke-miterlimit="10" d="M241.824,220.746
		c-1.067-1.865-1.677-4.026-1.677-6.329c0-7.05,5.715-12.765,12.765-12.765c1.14,0,2.244,0.149,3.295,0.429"/>
	<path clip-path="url(#SVGID_2_)" fill="none" stroke="#000000" stroke-miterlimit="10" d="M265.415,223.901
		c-2.87,3.774-7.407,6.215-12.503,6.215c-0.933,0-1.847-0.082-2.736-0.239"/>
	<path clip-path="url(#SVGID_2_)" fill="none" stroke="#000000" stroke-miterlimit="10" d="M268.529,212.814
		c0.055,0.527,0.081,1.062,0.081,1.603c0,1.861-0.325,3.648-0.923,5.306"/>
	<path clip-path="url(#SVGID_2_)" fill="none" stroke="#64B357" stroke-miterlimit="10" d="M270.069,177.658
		c-1.569,5.201-0.467,10.572,2.518,14.64c4.736-1.736,8.627-5.6,10.198-10.801c1.569-5.201,0.467-10.572-2.518-14.64
		C275.532,168.594,271.64,172.457,270.069,177.658z"/>
	<path clip-path="url(#SVGID_2_)" fill="none" stroke="#64B357" stroke-miterlimit="10" d="M282.612,195.653
		c-2.862,0.864-5.817,0.257-8.055-1.385c0.955-2.606,3.081-4.747,5.942-5.611c2.861-0.864,5.817-0.257,8.056,1.385
		C287.6,192.648,285.475,194.79,282.612,195.653z"/>
	<polygon clip-path="url(#SVGID_2_)" fill="none" stroke="#000000" stroke-miterlimit="10" points="226.861,240.167 267.12,187.909 
		279.12,199.909 	"/>
	
		<line clip-path="url(#SVGID_2_)" fill="none" stroke="#000000" stroke-miterlimit="10" x1="260.407" y1="196.836" x2="265.635" y2="202.064"/>
	
		<line clip-path="url(#SVGID_2_)" fill="none" stroke="#000000" stroke-miterlimit="10" x1="264.941" y1="210.832" x2="261.1" y2="207.159"/>
	
		<line clip-path="url(#SVGID_2_)" fill="none" stroke="#000000" stroke-miterlimit="10" x1="251.368" y1="208.604" x2="254.652" y2="211.905"/>
</g>
</svg>
